<?xml version="1.0" encoding="UTF-8" standalone="no"?>
<!-- Created with Inkscape (http://www.inkscape.org/) -->

<svg
   version="1.1"
   id="svg2"
   xml:space="preserve"
   width="512.53333"
   height="361.45334"
   viewBox="0 0 512.53333 361.45334"
   sodipodi:docname="fundomGamma02.pdf"
   xmlns:inkscape="http://www.inkscape.org/namespaces/inkscape"
   xmlns:sodipodi="http://sodipodi.sourceforge.net/DTD/sodipodi-0.dtd"
   xmlns="http://www.w3.org/2000/svg"
   xmlns:svg="http://www.w3.org/2000/svg"><defs
     id="defs6" /><sodipodi:namedview
     id="namedview4"
     pagecolor="#ffffff"
     bordercolor="#666666"
     borderopacity="1.0"
     inkscape:pageshadow="2"
     inkscape:pageopacity="0.0"
     inkscape:pagecheckerboard="0" /><g
     id="g8"
     inkscape:groupmode="layer"
     inkscape:label="fundomGamma02"
     transform="matrix(1.3333333,0,0,-1.3333333,-85.066667,1024.8)"><g
       id="g10"><path
         d="m 192.124,623.098 0.264,-62.601 11.094,1.585 13.735,-1.057 9.774,-3.169 11.622,-7.66 9.773,-11.094 3.434,-6.339 3.962,-10.566 1.32,5.547 4.755,22.98 12.679,27.999 17.961,22.98 17.433,15.056 10.038,5.811 -1.849,1.849 -10.302,5.811 -17.433,5.811 -16.377,4.226 -18.489,0.264 -6.076,0.529 -20.338,-2.642 -19.811,-5.811 -16.641,-8.188 z"
         style="fill:#d3d3d3;fill-opacity:1;fill-rule:evenodd;stroke:none"
         id="path12" /></g><g
       id="g14"><path
         d="M 192,768 H 320 V 624 l -24,12 -24,4 h -16 -20 l -28,-8 -16,-8 z"
         style="fill:#d3d3d3;fill-opacity:1;fill-rule:evenodd;stroke:none"
         id="path16" /></g><g
       id="g18"><path
         d="M 64,512 H 448"
         style="fill:none;stroke:#000000;stroke-width:0.4;stroke-linecap:butt;stroke-linejoin:round;stroke-miterlimit:10;stroke-dasharray:none;stroke-opacity:1"
         id="path20" /></g><g
       id="g22"><path
         d="m 320,624 v 144 0"
         style="fill:none;stroke:#000000;stroke-width:1.2;stroke-linecap:butt;stroke-linejoin:round;stroke-miterlimit:10;stroke-dasharray:none;stroke-opacity:1"
         id="path24" /></g><g
       id="g26"><path
         d="M 192,624 V 768"
         style="fill:none;stroke:#000000;stroke-width:1.2;stroke-linecap:butt;stroke-linejoin:round;stroke-miterlimit:10;stroke-dasharray:none;stroke-opacity:1"
         id="path28" /></g><g
       id="g30"><path
         d="m 192,624 c 39.658,22.661 88.342,22.661 128,0"
         style="fill:none;stroke:#000000;stroke-width:1.2;stroke-linecap:butt;stroke-linejoin:round;stroke-miterlimit:10;stroke-dasharray:none;stroke-opacity:1"
         id="path32" /></g><g
       id="g34"><g
         id="g36"><path
           d="m 323,624 c 0,1.657 -1.343,3 -3,3 -1.657,0 -3,-1.343 -3,-3 0,-1.657 1.343,-3 3,-3 1.657,0 3,1.343 3,3"
           style="fill:#000000;fill-opacity:1;fill-rule:evenodd;stroke:none"
           id="path38" /></g></g><g
       id="g40"><g
         id="g42"><path
           d="m 259,640 c 0,1.657 -1.343,3 -3,3 -1.657,0 -3,-1.343 -3,-3 0,-1.657 1.343,-3 3,-3 1.657,0 3,1.343 3,3"
           style="fill:#000000;fill-opacity:1;fill-rule:evenodd;stroke:none"
           id="path44" /></g></g><g
       id="g46"
       transform="translate(328,622.07)"><g
         id="g48"
         transform="translate(0,-784.251)"><text
           transform="matrix(1,0,0,-1,0,786.188)"
           style="font-variant:normal;font-weight:normal;font-size:9.9626px;font-family:CMSY10;-inkscape-font-specification:CMSY10;writing-mode:lr-tb;fill:#000000;fill-opacity:1;fill-rule:nonzero;stroke:none"
           id="text52"><tspan
             x="0"
             y="0"
             id="tspan50">−</tspan></text><text
           transform="matrix(1,0,0,-1,8.664,786.188)"
           style="font-variant:normal;font-weight:normal;font-size:9.9626px;font-family:CMR10;-inkscape-font-specification:CMR10;writing-mode:lr-tb;fill:#000000;fill-opacity:1;fill-rule:nonzero;stroke:none"
           id="text56"><tspan
             x="0"
             y="0"
             id="tspan54">¯</tspan></text><text
           transform="matrix(1,0,0,-1,7.749,786.188)"
           style="font-variant:normal;font-weight:normal;font-size:9.9626px;font-family:CMMI10;-inkscape-font-specification:CMMI10;writing-mode:lr-tb;fill:#000000;fill-opacity:1;fill-rule:nonzero;stroke:none"
           id="text60"><tspan
             x="0"
             y="0"
             id="tspan58">ρ</tspan></text></g></g><g
       id="g62"><g
         id="g64"><path
           d="m 195,624 c 0,1.657 -1.343,3 -3,3 -1.657,0 -3,-1.343 -3,-3 0,-1.657 1.343,-3 3,-3 1.657,0 3,1.343 3,3"
           style="fill:#000000;fill-opacity:1;fill-rule:evenodd;stroke:none"
           id="path66" /></g></g><g
       id="g68"
       transform="translate(151.262,625.386)"><g
         id="g70"
         transform="translate(0,-780.45)"><text
           transform="matrix(1,0,0,-1,0,782.387)"
           style="font-variant:normal;font-weight:normal;font-size:9.9626px;font-family:CMMI10;-inkscape-font-specification:CMMI10;writing-mode:lr-tb;fill:#000000;fill-opacity:1;fill-rule:nonzero;stroke:none"
           id="text74"><tspan
             x="0"
             y="0"
             id="tspan72">ρ</tspan></text><text
           transform="matrix(1,0,0,-1,7.918,782.387)"
           style="font-variant:normal;font-weight:normal;font-size:9.9626px;font-family:CMR10;-inkscape-font-specification:CMR10;writing-mode:lr-tb;fill:#000000;fill-opacity:1;fill-rule:nonzero;stroke:none"
           id="text78"><tspan
             x="0"
             y="0"
             id="tspan76">=</tspan></text><text
           transform="matrix(1,0,0,-1,18.434,782.387)"
           style="font-variant:normal;font-weight:normal;font-size:9.9626px;font-family:CMMI10;-inkscape-font-specification:CMMI10;writing-mode:lr-tb;fill:#000000;fill-opacity:1;fill-rule:nonzero;stroke:none"
           id="text82"><tspan
             x="0"
             y="0"
             id="tspan80">e</tspan></text><text
           transform="matrix(1,0,0,-1,24.269,788.68)"
           style="font-variant:normal;font-weight:normal;font-size:4.9813px;font-family:CMR5;-inkscape-font-specification:CMR5;writing-mode:lr-tb;fill:#000000;fill-opacity:1;fill-rule:nonzero;stroke:none"
           id="text86"><tspan
             x="0"
             y="0"
             id="tspan84">2</tspan></text><text
           transform="matrix(1,0,0,-1,27.659,788.68)"
           style="font-variant:normal;font-weight:normal;font-size:4.9813px;font-family:CMMI5;-inkscape-font-specification:CMMI5;writing-mode:lr-tb;fill:#000000;fill-opacity:1;fill-rule:nonzero;stroke:none"
           id="text90"><tspan
             x="0 4.3192854"
             y="0"
             sodipodi:role="line"
             id="tspan88">πi</tspan></text><g
           id="g92"
           transform="translate(24.269,787.746)"><path
             d="M 0,0 H 10.367"
             style="fill:none;stroke:#000000;stroke-width:0.398;stroke-linecap:butt;stroke-linejoin:round;stroke-miterlimit:10;stroke-dasharray:none;stroke-opacity:1"
             id="path94" /></g><text
           transform="matrix(1,0,0,-1,27.757,783.602)"
           style="font-variant:normal;font-weight:normal;font-size:4.9813px;font-family:CMR5;-inkscape-font-specification:CMR5;writing-mode:lr-tb;fill:#000000;fill-opacity:1;fill-rule:nonzero;stroke:none"
           id="text98"><tspan
             x="0"
             y="0"
             id="tspan96">3</tspan></text></g></g><g
       id="g100"><path
         d="m 128,512 c -0.451,70.693 56.492,128.365 127.185,128.815 70.693,0.451 128.365,-56.492 128.815,-127.185 0.004,-0.543 0.004,-1.087 0,-1.63"
         style="fill:none;stroke:#000000;stroke-width:0.4;stroke-linecap:butt;stroke-linejoin:round;stroke-miterlimit:10;stroke-dasharray:1, 3;stroke-dashoffset:0;stroke-opacity:1"
         id="path102" /></g><g
       id="g104"
       transform="translate(260,646.26)"><g
         id="g106"
         transform="translate(0,-781.639)"><text
           transform="matrix(1,0,0,-1,0,783.377)"
           style="font-variant:normal;font-weight:normal;font-size:9.9626px;font-family:CMMI10;-inkscape-font-specification:CMMI10;writing-mode:lr-tb;fill:#000000;fill-opacity:1;fill-rule:nonzero;stroke:none"
           id="text110"><tspan
             x="0"
             y="0"
             id="tspan108">i</tspan></text><text
           transform="matrix(1,0,0,-1,6.2,783.377)"
           style="font-variant:normal;font-weight:normal;font-size:9.9626px;font-family:CMR10;-inkscape-font-specification:CMR10;writing-mode:lr-tb;fill:#000000;fill-opacity:1;fill-rule:nonzero;stroke:none"
           id="text114"><tspan
             x="0"
             y="0"
             id="tspan112">=</tspan></text><text
           transform="matrix(1,0,0,-1,16.716,791.203)"
           style="font-variant:normal;font-weight:normal;font-size:9.9626px;font-family:CMSY10;-inkscape-font-specification:CMSY10;writing-mode:lr-tb;fill:#000000;fill-opacity:1;fill-rule:nonzero;stroke:none"
           id="text118"><tspan
             x="0"
             y="0"
             id="tspan116">√</tspan></text><g
           id="g120"
           transform="translate(25.018,791.402)"><path
             d="M 0,0 H 12.73"
             style="fill:none;stroke:#000000;stroke-width:0.398;stroke-linecap:butt;stroke-linejoin:round;stroke-miterlimit:10;stroke-dasharray:none;stroke-opacity:1"
             id="path122" /></g><text
           transform="matrix(1,0,0,-1,25.018,783.377)"
           style="font-variant:normal;font-weight:normal;font-size:9.9626px;font-family:CMSY10;-inkscape-font-specification:CMSY10;writing-mode:lr-tb;fill:#000000;fill-opacity:1;fill-rule:nonzero;stroke:none"
           id="text126"><tspan
             x="0"
             y="0"
             id="tspan124">−</tspan></text><text
           transform="matrix(1,0,0,-1,32.767,783.377)"
           style="font-variant:normal;font-weight:normal;font-size:9.9626px;font-family:CMR10;-inkscape-font-specification:CMR10;writing-mode:lr-tb;fill:#000000;fill-opacity:1;fill-rule:nonzero;stroke:none"
           id="text130"><tspan
             x="0"
             y="0"
             id="tspan128">1</tspan></text></g></g><g
       id="g132"
       transform="translate(268,700)"><g
         id="g134"
         transform="translate(0,-785.192)"><text
           transform="matrix(1,0,0,-1,0,785.192)"
           style="font-variant:normal;font-weight:normal;font-size:9.9626px;font-family:CMSY10;-inkscape-font-specification:CMSY10;writing-mode:lr-tb;fill:#000000;fill-opacity:1;fill-rule:nonzero;stroke:none"
           id="text138"><tspan
             x="0"
             y="0"
             id="tspan136">D</tspan></text></g></g><g
       id="g140"><path
         d="M 192,624 V 512"
         style="fill:none;stroke:#000000;stroke-width:0.4;stroke-linecap:butt;stroke-linejoin:round;stroke-miterlimit:10;stroke-dasharray:1, 3;stroke-dashoffset:0;stroke-opacity:1"
         id="path142" /></g><g
       id="g144"><path
         d="M 320,624 V 512"
         style="fill:none;stroke:#000000;stroke-width:0.4;stroke-linecap:butt;stroke-linejoin:round;stroke-miterlimit:10;stroke-dasharray:1, 3;stroke-dashoffset:0;stroke-opacity:1"
         id="path146" /></g><g
       id="g148"
       transform="translate(188,497.51)"><g
         id="g150"
         transform="translate(0,-782.037)"><text
           transform="matrix(1,0,0,-1,0,784.528)"
           style="font-variant:normal;font-weight:normal;font-size:9.9626px;font-family:CMSY10;-inkscape-font-specification:CMSY10;writing-mode:lr-tb;fill:#000000;fill-opacity:1;fill-rule:nonzero;stroke:none"
           id="text154"><tspan
             x="0"
             y="0"
             id="tspan152">−</tspan></text><text
           transform="matrix(1,0,0,-1,7.749,784.528)"
           style="font-variant:normal;font-weight:normal;font-size:9.9626px;font-family:CMR10;-inkscape-font-specification:CMR10;writing-mode:lr-tb;fill:#000000;fill-opacity:1;fill-rule:nonzero;stroke:none"
           id="text158"><tspan
             x="0"
             y="0"
             id="tspan156">1</tspan></text><text
           transform="matrix(1,0,0,-1,12.73,784.528)"
           style="font-variant:normal;font-weight:normal;font-size:9.9626px;font-family:CMMI10;-inkscape-font-specification:CMMI10;writing-mode:lr-tb;fill:#000000;fill-opacity:1;fill-rule:nonzero;stroke:none"
           id="text162"><tspan
             x="0"
             y="0"
             id="tspan160">/</tspan></text><text
           transform="matrix(1,0,0,-1,17.711,784.528)"
           style="font-variant:normal;font-weight:normal;font-size:9.9626px;font-family:CMR10;-inkscape-font-specification:CMR10;writing-mode:lr-tb;fill:#000000;fill-opacity:1;fill-rule:nonzero;stroke:none"
           id="text166"><tspan
             x="0"
             y="0"
             id="tspan164">2</tspan></text></g></g><g
       id="g168"
       transform="translate(316,497.51)"><g
         id="g170"
         transform="translate(0,-782.037)"><text
           transform="matrix(1,0,0,-1,0,784.528)"
           style="font-variant:normal;font-weight:normal;font-size:9.9626px;font-family:CMR10;-inkscape-font-specification:CMR10;writing-mode:lr-tb;fill:#000000;fill-opacity:1;fill-rule:nonzero;stroke:none"
           id="text174"><tspan
             x="0"
             y="0"
             id="tspan172">1</tspan></text><text
           transform="matrix(1,0,0,-1,4.981,784.528)"
           style="font-variant:normal;font-weight:normal;font-size:9.9626px;font-family:CMMI10;-inkscape-font-specification:CMMI10;writing-mode:lr-tb;fill:#000000;fill-opacity:1;fill-rule:nonzero;stroke:none"
           id="text178"><tspan
             x="0"
             y="0"
             id="tspan176">/</tspan></text><text
           transform="matrix(1,0,0,-1,9.963,784.528)"
           style="font-variant:normal;font-weight:normal;font-size:9.9626px;font-family:CMR10;-inkscape-font-specification:CMR10;writing-mode:lr-tb;fill:#000000;fill-opacity:1;fill-rule:nonzero;stroke:none"
           id="text182"><tspan
             x="0"
             y="0"
             id="tspan180">2</tspan></text></g></g><g
       id="g184"
       transform="translate(120,499.17)"><g
         id="g186"
         transform="translate(0,-784.749)"><text
           transform="matrix(1,0,0,-1,0,785.579)"
           style="font-variant:normal;font-weight:normal;font-size:9.9626px;font-family:CMSY10;-inkscape-font-specification:CMSY10;writing-mode:lr-tb;fill:#000000;fill-opacity:1;fill-rule:nonzero;stroke:none"
           id="text190"><tspan
             x="0"
             y="0"
             id="tspan188">−</tspan></text><text
           transform="matrix(1,0,0,-1,7.749,785.579)"
           style="font-variant:normal;font-weight:normal;font-size:9.9626px;font-family:CMR10;-inkscape-font-specification:CMR10;writing-mode:lr-tb;fill:#000000;fill-opacity:1;fill-rule:nonzero;stroke:none"
           id="text194"><tspan
             x="0"
             y="0"
             id="tspan192">1</tspan></text></g></g><g
       id="g196"
       transform="translate(380,500)"><g
         id="g198"
         transform="translate(0,-785.58)"><text
           transform="matrix(1,0,0,-1,0,785.58)"
           style="font-variant:normal;font-weight:normal;font-size:9.9626px;font-family:CMR10;-inkscape-font-specification:CMR10;writing-mode:lr-tb;fill:#000000;fill-opacity:1;fill-rule:nonzero;stroke:none"
           id="text202"><tspan
             x="0"
             y="0"
             id="tspan200">1</tspan></text></g></g><g
       id="g204"><g
         id="g206"><path
           d="m 129.8,512 c 0,0.994 -0.806,1.8 -1.8,1.8 -0.994,0 -1.8,-0.806 -1.8,-1.8 0,-0.994 0.806,-1.8 1.8,-1.8 0.994,0 1.8,0.806 1.8,1.8"
           style="fill:#000000;fill-opacity:1;fill-rule:evenodd;stroke:none"
           id="path208" /></g></g><g
       id="g210"><g
         id="g212"><path
           d="m 193.8,512 c 0,0.994 -0.806,1.8 -1.8,1.8 -0.994,0 -1.8,-0.806 -1.8,-1.8 0,-0.994 0.806,-1.8 1.8,-1.8 0.994,0 1.8,0.806 1.8,1.8"
           style="fill:#000000;fill-opacity:1;fill-rule:evenodd;stroke:none"
           id="path214" /></g></g><g
       id="g216"><g
         id="g218"><path
           d="m 257.8,512 c 0,0.994 -0.806,1.8 -1.8,1.8 -0.994,0 -1.8,-0.806 -1.8,-1.8 0,-0.994 0.806,-1.8 1.8,-1.8 0.994,0 1.8,0.806 1.8,1.8"
           style="fill:#000000;fill-opacity:1;fill-rule:evenodd;stroke:none"
           id="path220" /></g></g><g
       id="g222"><g
         id="g224"><path
           d="m 321.8,512 c 0,0.994 -0.806,1.8 -1.8,1.8 -0.994,0 -1.8,-0.806 -1.8,-1.8 0,-0.994 0.806,-1.8 1.8,-1.8 0.994,0 1.8,0.806 1.8,1.8"
           style="fill:#000000;fill-opacity:1;fill-rule:evenodd;stroke:none"
           id="path226" /></g></g><g
       id="g228"><g
         id="g230"><path
           d="m 385.8,512 c 0,0.994 -0.806,1.8 -1.8,1.8 -0.994,0 -1.8,-0.806 -1.8,-1.8 0,-0.994 0.806,-1.8 1.8,-1.8 0.994,0 1.8,0.806 1.8,1.8"
           style="fill:#000000;fill-opacity:1;fill-rule:evenodd;stroke:none"
           id="path232" /></g></g><g
       id="g234"><path
         d="m 192,624 c 40.111,-22.92 64.618,-65.807 64.001,-112"
         style="fill:none;stroke:#000000;stroke-width:1.2;stroke-linecap:butt;stroke-linejoin:round;stroke-miterlimit:10;stroke-dasharray:none;stroke-opacity:1"
         id="path236" /></g><g
       id="g238"><path
         d="m 256,512 c 0,45.934 24.613,88.345 64.494,111.135"
         style="fill:none;stroke:#000000;stroke-width:1.2;stroke-linecap:butt;stroke-linejoin:round;stroke-miterlimit:10;stroke-dasharray:none;stroke-opacity:1"
         id="path240" /></g><g
       id="g242"><path
         d="M 192,624 V 560"
         style="fill:none;stroke:#000000;stroke-width:1.2;stroke-linecap:butt;stroke-linejoin:round;stroke-miterlimit:10;stroke-dasharray:none;stroke-opacity:1"
         id="path244" /></g><g
       id="g246"><path
         d="m 192,560 c 26.51,7.732 54.268,-7.49 62,-34 1.327,-4.548 2,-9.262 2,-14"
         style="fill:none;stroke:#000000;stroke-width:1.2;stroke-linecap:butt;stroke-linejoin:round;stroke-miterlimit:10;stroke-dasharray:none;stroke-opacity:1"
         id="path248" /></g><g
       id="g250"><path
         d="m 256,512 c 0,27.614 -22.386,50 -50,50 -27.614,0 -50,-22.386 -50,-50"
         style="fill:none;stroke:#000000;stroke-width:0.4;stroke-linecap:butt;stroke-linejoin:round;stroke-miterlimit:10;stroke-dasharray:1, 3;stroke-dashoffset:0;stroke-opacity:1"
         id="path252" /></g><g
       id="g254"
       transform="translate(148,497.51)"><g
         id="g256"
         transform="translate(0,-782.037)"><text
           transform="matrix(1,0,0,-1,0,784.528)"
           style="font-variant:normal;font-weight:normal;font-size:9.9626px;font-family:CMSY10;-inkscape-font-specification:CMSY10;writing-mode:lr-tb;fill:#000000;fill-opacity:1;fill-rule:nonzero;stroke:none"
           id="text260"><tspan
             x="0"
             y="0"
             id="tspan258">−</tspan></text><text
           transform="matrix(1,0,0,-1,7.749,784.528)"
           style="font-variant:normal;font-weight:normal;font-size:9.9626px;font-family:CMR10;-inkscape-font-specification:CMR10;writing-mode:lr-tb;fill:#000000;fill-opacity:1;fill-rule:nonzero;stroke:none"
           id="text264"><tspan
             x="0"
             y="0"
             id="tspan262">2</tspan></text><text
           transform="matrix(1,0,0,-1,12.73,784.528)"
           style="font-variant:normal;font-weight:normal;font-size:9.9626px;font-family:CMMI10;-inkscape-font-specification:CMMI10;writing-mode:lr-tb;fill:#000000;fill-opacity:1;fill-rule:nonzero;stroke:none"
           id="text268"><tspan
             x="0"
             y="0"
             id="tspan266">/</tspan></text><text
           transform="matrix(1,0,0,-1,17.711,784.528)"
           style="font-variant:normal;font-weight:normal;font-size:9.9626px;font-family:CMR10;-inkscape-font-specification:CMR10;writing-mode:lr-tb;fill:#000000;fill-opacity:1;fill-rule:nonzero;stroke:none"
           id="text272"><tspan
             x="0"
             y="0"
             id="tspan270">3</tspan></text></g></g><g
       id="g274"
       transform="translate(256,600)"><g
         id="g276"
         transform="translate(0,-785.192)"><text
           transform="matrix(1,0,0,-1,0,785.192)"
           style="font-variant:normal;font-weight:normal;font-size:9.9626px;font-family:CMMI10;-inkscape-font-specification:CMMI10;writing-mode:lr-tb;fill:#000000;fill-opacity:1;fill-rule:nonzero;stroke:none"
           id="text280"><tspan
             x="0"
             y="0"
             id="tspan278">S</tspan></text><text
           transform="matrix(1,0,0,-1,6.683,785.192)"
           style="font-variant:normal;font-weight:normal;font-size:9.9626px;font-family:CMSY10;-inkscape-font-specification:CMSY10;writing-mode:lr-tb;fill:#000000;fill-opacity:1;fill-rule:nonzero;stroke:none"
           id="text284"><tspan
             x="0"
             y="0"
             id="tspan282">D</tspan></text></g></g><g
       id="g286"
       transform="translate(208,572)"><g
         id="g288"
         transform="translate(0,-785.192)"><text
           transform="matrix(1,0,0,-1,0,785.192)"
           style="font-variant:normal;font-weight:normal;font-size:9.9626px;font-family:CMMI10;-inkscape-font-specification:CMMI10;writing-mode:lr-tb;fill:#000000;fill-opacity:1;fill-rule:nonzero;stroke:none"
           id="text292"><tspan
             x="0 6.6868973"
             y="0"
             sodipodi:role="line"
             id="tspan290">ST</tspan></text><text
           transform="matrix(1,0,0,-1,13.889,785.192)"
           style="font-variant:normal;font-weight:normal;font-size:9.9626px;font-family:CMSY10;-inkscape-font-specification:CMSY10;writing-mode:lr-tb;fill:#000000;fill-opacity:1;fill-rule:nonzero;stroke:none"
           id="text296"><tspan
             x="0"
             y="0"
             id="tspan294">D</tspan></text></g></g></g></svg>
