<?xml version="1.0" encoding="UTF-8" standalone="no"?>
<!-- Created with Inkscape (http://www.inkscape.org/) -->

<svg
   version="1.1"
   id="svg2"
   xml:space="preserve"
   width="373.17868"
   height="251.40401"
   viewBox="0 0 373.17868 251.40401"
   sodipodi:docname="shrinking-neighborhoods.pdf"
   xmlns:inkscape="http://www.inkscape.org/namespaces/inkscape"
   xmlns:sodipodi="http://sodipodi.sourceforge.net/DTD/sodipodi-0.dtd"
   xmlns="http://www.w3.org/2000/svg"
   xmlns:svg="http://www.w3.org/2000/svg"><defs
     id="defs6" /><sodipodi:namedview
     id="namedview4"
     pagecolor="#ffffff"
     bordercolor="#666666"
     borderopacity="1.0"
     inkscape:pageshadow="2"
     inkscape:pageopacity="0.0"
     inkscape:pagecheckerboard="0" /><g
     id="g8"
     inkscape:groupmode="layer"
     inkscape:label="shrinking-neighborhoods"
     transform="matrix(1.3333333,0,0,-1.3333333,-227.012,1022.416)"><g
       id="g10"><path
         d="m 341.041,664 c 0,46.967 -38.074,85.041 -85.041,85.041 -46.967,0 -85.041,-38.074 -85.041,-85.041 0,-46.967 38.074,-85.041 85.041,-85.041 46.967,0 85.041,38.074 85.041,85.041"
         style="fill:none;stroke:#000000;stroke-width:0.4;stroke-linecap:butt;stroke-linejoin:round;stroke-miterlimit:10;stroke-dasharray:1, 3;stroke-dashoffset:0;stroke-opacity:1"
         id="path12" /></g><g
       id="g14"><path
         d="m 449.443,672 c 0,49.398 -40.045,89.443 -89.443,89.443 -49.398,0 -89.443,-40.045 -89.443,-89.443 0,-49.398 40.045,-89.443 89.443,-89.443 49.398,0 89.443,40.045 89.443,89.443"
         style="fill:none;stroke:#000000;stroke-width:0.4;stroke-linecap:butt;stroke-linejoin:round;stroke-miterlimit:10;stroke-dasharray:1, 3;stroke-dashoffset:0;stroke-opacity:1"
         id="path16" /></g><g
       id="g18"><path
         d="m 252.844,664 c 0,15.93 -12.914,28.844 -28.844,28.844 -15.93,0 -28.844,-12.914 -28.844,-28.844 0,-15.93 12.914,-28.844 28.844,-28.844 15.93,0 28.844,12.914 28.844,28.844"
         style="fill:none;stroke:#000000;stroke-width:0.4;stroke-linecap:butt;stroke-linejoin:round;stroke-miterlimit:10;stroke-dasharray:1, 3;stroke-dashoffset:0;stroke-opacity:1"
         id="path20" /></g><g
       id="g22"><path
         d="m 412.844,680 c 0,15.93 -12.914,28.844 -28.844,28.844 -15.93,0 -28.844,-12.914 -28.844,-28.844 0,-15.93 12.914,-28.844 28.844,-28.844 15.93,0 28.844,12.914 28.844,28.844"
         style="fill:none;stroke:#000000;stroke-width:0.4;stroke-linecap:butt;stroke-linejoin:round;stroke-miterlimit:10;stroke-dasharray:1, 3;stroke-dashoffset:0;stroke-opacity:1"
         id="path24" /></g><g
       id="g26"><g
         id="g28"><path
           d="m 225.8,664 c 0,0.994 -0.806,1.8 -1.8,1.8 -0.994,0 -1.8,-0.806 -1.8,-1.8 0,-0.994 0.806,-1.8 1.8,-1.8 0.994,0 1.8,0.806 1.8,1.8"
           style="fill:#000000;fill-opacity:1;fill-rule:evenodd;stroke:none"
           id="path30" /></g></g><g
       id="g32"><g
         id="g34"><path
           d="m 385.8,680 c 0,0.994 -0.806,1.8 -1.8,1.8 -0.994,0 -1.8,-0.806 -1.8,-1.8 0,-0.994 0.806,-1.8 1.8,-1.8 0.994,0 1.8,0.806 1.8,1.8"
           style="fill:#000000;fill-opacity:1;fill-rule:evenodd;stroke:none"
           id="path36" /></g></g><g
       id="g38"
       transform="translate(184,742.07)"><g
         id="g40"
         transform="translate(0,-783.255)"><text
           transform="matrix(1,0,0,-1,0,785.192)"
           style="font-variant:normal;font-weight:normal;font-size:9.9626px;font-family:CMMI10;-inkscape-font-specification:CMMI10;writing-mode:lr-tb;fill:#000000;fill-opacity:1;fill-rule:nonzero;stroke:none"
           id="text44"><tspan
             x="0 5.7155437"
             y="0"
             sodipodi:role="line"
             id="tspan42">γU</tspan></text><text
           transform="matrix(1,0,0,-1,12.514,783.698)"
           style="font-variant:normal;font-weight:normal;font-size:6.9738px;font-family:CMR7;-inkscape-font-specification:CMR7;writing-mode:lr-tb;fill:#000000;fill-opacity:1;fill-rule:nonzero;stroke:none"
           id="text48"><tspan
             x="0"
             y="0"
             id="tspan46">1</tspan></text></g></g><g
       id="g50"
       transform="translate(416,758.51)"><g
         id="g52"
         transform="translate(0,-783.698)"><text
           transform="matrix(1,0,0,-1,0,785.192)"
           style="font-variant:normal;font-weight:normal;font-size:9.9626px;font-family:CMMI10;-inkscape-font-specification:CMMI10;writing-mode:lr-tb;fill:#000000;fill-opacity:1;fill-rule:nonzero;stroke:none"
           id="text56"><tspan
             x="0"
             y="0"
             id="tspan54">U</tspan></text><text
           transform="matrix(1,0,0,-1,6.802,783.698)"
           style="font-variant:normal;font-weight:normal;font-size:6.9738px;font-family:CMR7;-inkscape-font-specification:CMR7;writing-mode:lr-tb;fill:#000000;fill-opacity:1;fill-rule:nonzero;stroke:none"
           id="text60"><tspan
             x="0"
             y="0"
             id="tspan58">2</tspan></text></g></g><g
       id="g62"
       transform="translate(224,654.07)"><g
         id="g64"
         transform="translate(0,-785.773)"><text
           transform="matrix(1,0,0,-1,0,787.71)"
           style="font-variant:normal;font-weight:normal;font-size:9.9626px;font-family:CMMI10;-inkscape-font-specification:CMMI10;writing-mode:lr-tb;fill:#000000;fill-opacity:1;fill-rule:nonzero;stroke:none"
           id="text68"><tspan
             x="0 5.7155437"
             y="0"
             sodipodi:role="line"
             id="tspan66">γτ</tspan></text><text
           transform="matrix(1,0,0,-1,10.067,786.216)"
           style="font-variant:normal;font-weight:normal;font-size:6.9738px;font-family:CMR7;-inkscape-font-specification:CMR7;writing-mode:lr-tb;fill:#000000;fill-opacity:1;fill-rule:nonzero;stroke:none"
           id="text72"><tspan
             x="0"
             y="0"
             id="tspan70">1</tspan></text></g></g><g
       id="g74"
       transform="translate(384,670.51)"><g
         id="g76"
         transform="translate(0,-786.216)"><text
           transform="matrix(1,0,0,-1,0,787.71)"
           style="font-variant:normal;font-weight:normal;font-size:9.9626px;font-family:CMMI10;-inkscape-font-specification:CMMI10;writing-mode:lr-tb;fill:#000000;fill-opacity:1;fill-rule:nonzero;stroke:none"
           id="text80"><tspan
             x="0"
             y="0"
             id="tspan78">τ</tspan></text><text
           transform="matrix(1,0,0,-1,4.355,786.216)"
           style="font-variant:normal;font-weight:normal;font-size:6.9738px;font-family:CMR7;-inkscape-font-specification:CMR7;writing-mode:lr-tb;fill:#000000;fill-opacity:1;fill-rule:nonzero;stroke:none"
           id="text84"><tspan
             x="0"
             y="0"
             id="tspan82">2</tspan></text></g></g><g
       id="g86"
       transform="translate(224,702.51)"><g
         id="g88"
         transform="translate(0,-783.698)"><text
           transform="matrix(1,0,0,-1,0,785.192)"
           style="font-variant:normal;font-weight:normal;font-size:9.9626px;font-family:CMMI10;-inkscape-font-specification:CMMI10;writing-mode:lr-tb;fill:#000000;fill-opacity:1;fill-rule:nonzero;stroke:none"
           id="text92"><tspan
             x="0"
             y="0"
             id="tspan90">V</tspan></text><text
           transform="matrix(1,0,0,-1,5.812,783.698)"
           style="font-variant:normal;font-weight:normal;font-size:6.9738px;font-family:CMR7;-inkscape-font-specification:CMR7;writing-mode:lr-tb;fill:#000000;fill-opacity:1;fill-rule:nonzero;stroke:none"
           id="text96"><tspan
             x="0"
             y="0"
             id="tspan94">1</tspan></text></g></g><g
       id="g98"
       transform="translate(376,718.51)"><g
         id="g100"
         transform="translate(0,-783.698)"><text
           transform="matrix(1,0,0,-1,0,785.192)"
           style="font-variant:normal;font-weight:normal;font-size:9.9626px;font-family:CMMI10;-inkscape-font-specification:CMMI10;writing-mode:lr-tb;fill:#000000;fill-opacity:1;fill-rule:nonzero;stroke:none"
           id="text104"><tspan
             x="0"
             y="0"
             id="tspan102">V</tspan></text><text
           transform="matrix(1,0,0,-1,5.812,783.698)"
           style="font-variant:normal;font-weight:normal;font-size:6.9738px;font-family:CMR7;-inkscape-font-specification:CMR7;writing-mode:lr-tb;fill:#000000;fill-opacity:1;fill-rule:nonzero;stroke:none"
           id="text108"><tspan
             x="0"
             y="0"
             id="tspan106">2</tspan></text></g></g></g></svg>
