<?xml version="1.0" encoding="UTF-8" standalone="no"?>
<!-- Created with Inkscape (http://www.inkscape.org/) -->

<svg
   version="1.1"
   id="svg2"
   xml:space="preserve"
   width="444.98801"
   height="228.188"
   viewBox="0 0 444.98801 228.188"
   sodipodi:docname="torus.pdf"
   xmlns:inkscape="http://www.inkscape.org/namespaces/inkscape"
   xmlns:sodipodi="http://sodipodi.sourceforge.net/DTD/sodipodi-0.dtd"
   xmlns="http://www.w3.org/2000/svg"
   xmlns:svg="http://www.w3.org/2000/svg"><defs
     id="defs6" /><sodipodi:namedview
     id="namedview4"
     pagecolor="#ffffff"
     bordercolor="#666666"
     borderopacity="1.0"
     inkscape:pageshadow="2"
     inkscape:pageopacity="0.0"
     inkscape:pagecheckerboard="0" /><g
     id="g8"
     inkscape:groupmode="layer"
     inkscape:label="torus"
     transform="matrix(1.3333333,0,0,-1.3333333,-209.94533,926.26667)"><g
       id="g10"><path
         d="M 320.667,694 C 378.667,693.333 445.333,674.667 474,647.333 502.667,620 493.333,584 451.333,558.667 409.333,533.333 334.667,518.667 278,526 c -56.667,7.333 -95.333,36.667 -111.333,62.667 -16,26 -9.334,48.666 18.666,68.666 28,20 77.334,37.334 135.334,36.667 z"
         style="fill:none;stroke:#000000;stroke-width:0.4;stroke-linecap:butt;stroke-linejoin:round;stroke-miterlimit:10;stroke-dasharray:none;stroke-opacity:1"
         id="path12" /></g><g
       id="g14"><path
         d="m 240,624 c 44.183,-44.183 115.817,-44.183 160,0"
         style="fill:none;stroke:#000000;stroke-width:0.4;stroke-linecap:butt;stroke-linejoin:round;stroke-miterlimit:10;stroke-dasharray:none;stroke-opacity:1"
         id="path16" /></g><g
       id="g18"><path
         d="m 256,612 c 39.331,19.807 86.027,18.301 124,-4"
         style="fill:none;stroke:#000000;stroke-width:0.4;stroke-linecap:butt;stroke-linejoin:round;stroke-miterlimit:10;stroke-dasharray:none;stroke-opacity:1"
         id="path20" /></g></g></svg>
